<svg id="Capa_1" enable-background="new 0 0 512.008 512.008" height="512" viewBox="0 0 512.008 512.008" width="512" xmlns="http://www.w3.org/2000/svg"><g><g><path d="m440.414 377.757h-23.76l-26.009-9h-214.175l-34.418 9-57.111 15.121-46.351 34.6c-.148 1.282-.223 2.583-.223 3.899v27.161l9 13.595h40.976l24.092-13.601c7.495-5.922 16.969-9.458 27.273-9.458 10.092 0 19.387 3.392 26.808 9.095l24.557 13.964h136.937l24.092-13.601c7.495-5.922 16.969-9.458 27.273-9.458 10.092 0 19.387 3.392 26.808 9.095l24.557 13.964h33.903l9-13.595v-39.093z" fill="#ff4755"/><path d="m389.591 330.76c-8.878-15.417-25.338-24.922-43.157-24.922h-47.068l-7.742 9-7.742-9h-46.838c-12.865 0-25.23 4.97-34.503 13.869l-41.128 39.469 25.639 9.581h193.602l25.3-9.581z" fill="#3ea3ff"/><path d="m161.414 359.176-19.362 18.581h274.603l-10.7-18.581z" fill="#2a98ea"/><path d="m283.882 305.837h15.484v76.677h-15.484z" fill="#ff4755"/><path d="m440.414 385.585v-7.828h6.921c13.462 0 24.562 10.091 26.119 23.106l-8.813 9.582h-8.916l-14.6-10.904z" fill="#ffe55a"/><path d="m455.725 400.864c-8.456 0-15.311-6.841-15.311-15.279v18.581c0 8.438 6.855 15.279 15.311 15.279h17.916s-.071-17.549-.194-18.581z" fill="#ffd500"/><path d="m63.713 398.498 21.229-5.62-.147 5.359-12.928 19.642-15.271.601-9.716-9.589c4.345-4.926 10.132-8.619 16.833-10.393z" fill="#ffe55a"/><path d="m68.728 408.898h-21.839c-4.518 5.121-7.486 11.567-8.293 18.581h30.132c8.955 0 16.214-7.244 16.214-16.18v-18.421l-.008.002c-.088 8.86-7.306 16.018-16.206 16.018z" fill="#ffd500"/><g fill="#fc2b3a"><path d="m406.642 458.537c7.187 5.678 12.56 13.544 15.097 22.595v9.179h51.903v-31.774z"/><path d="m38.596 490.312h58.747v-9.179c2.537-9.051 7.91-16.917 15.096-22.595h-74.072z"/><path d="m182.072 481.133v9.179h154.937v-9.179c2.537-9.051 7.91-16.917 15.096-22.595h-185.13c7.187 5.678 12.56 13.543 15.097 22.595z"/></g><path d="m363.471 284.023c-4.276 0-7.742-3.466-7.742-7.742v-50.763c0-4.276 3.466-7.742 7.742-7.742s7.742 3.466 7.742 7.742v50.763c0 4.275-3.467 7.742-7.742 7.742z" fill="#726a71"/><path d="m116.56 115.807v-66.351l-9-27.577h-12.79l-9 27.577v66.351z" fill="#e6e2e6"/><path d="m85.77 21.879h30.791v27.577h-30.791z" fill="#d8d1d7"/><path d="m179.96 183.663-55.688-55.572-21.75 21.749 55.688 55.572z" fill="#e6e2e6"/><path d="m104.842 152.155 14.983 14.913c11.253-1.641 20.11-10.628 21.532-21.928l-14.951-14.919" fill="#d8d1d7"/><path d="m378.866 157.637v-108.181l-9-27.581h-12.791l-9 27.581v108.181z" fill="#e6e2e6"/><path d="m348.075 21.875h30.791v27.581h-30.791z" fill="#d8d1d7"/><path d="m124.857 117.733c-3.717-9.429-12.923-16.103-23.692-16.103-10.768 0-19.975 6.674-23.692 16.103 0 0 .485 27.197 23.692 27.197 25.449 0 23.692-27.197 23.692-27.197z" fill="#ff4755"/><path d="m101.165 133.842c-10.768 0-19.967-6.677-23.685-16.106-1.135 2.878-1.765 6.01-1.765 9.29 0 14.026 11.394 25.396 25.45 25.396 14.055 0 25.449-11.37 25.449-25.396 0-3.28-.63-6.412-1.765-9.29-3.717 9.428-12.916 16.106-23.684 16.106z" fill="#fc2b3a"/><path d="m388.784 177.682v38.255l-5.161 9.581h-40.303l-5.161-9.581v-38.255c0-13.951 11.333-25.26 25.313-25.26 13.979 0 25.312 11.31 25.312 25.26z" fill="#ff4755"/><path d="m343.319 234.518h40.303c2.851 0 5.161-2.311 5.161-5.161v-13.419h-50.626v13.419c.001 2.85 2.311 5.161 5.162 5.161z" fill="#fc2b3a"/><path d="m252.762 281.686c-1.977.095-3.989-.562-5.571-1.996l-39.35-35.827c-3.169-2.871-3.41-7.767-.538-10.935 2.87-3.169 7.767-3.41 10.935-.538l39.35 35.827c3.169 2.871 3.41 7.767.538 10.935-1.438 1.586-3.383 2.438-5.364 2.534z" fill="#726a71"/><path d="m197.431 187.101 26.318 26.263.915 7.812-28.491 28.432-8.197-.496-26.342-26.287c-9.885-9.865-9.885-25.859 0-35.723 9.884-9.866 25.912-9.866 35.797-.001z" fill="#ff4755"/><path d="m187.976 249.111 10.285 10.263c2.015 2.011 5.277 2.011 7.292 0l28.491-28.432c2.021-2.016 2.021-5.29 0-7.307l-10.294-10.273z" fill="#fc2b3a"/><path d="m505.564 21.879h-499.12l-4.37-14.167c2.67-4.61 7.658-7.712 13.37-7.712h481.121c5.329 0 10.028 2.7 12.803 6.807.199.295.388.596.567.905z" fill="#7b7179"/><path d="m496.564 15.44h-481.12c-5.712 0-10.687-3.11-13.357-7.72-1.317 2.273-2.082 4.904-2.082 7.72 0 8.527 6.912 15.44 15.44 15.44h481.12c8.527 0 15.44-6.913 15.44-15.44 0-2.816-.766-5.447-2.082-7.72-2.672 4.61-7.647 7.72-13.359 7.72z" fill="#726a71"/><path d="m505.564 503.008h-499.12l-4.37-14.167c2.671-4.611 7.658-7.712 13.37-7.712h481.121c5.329 0 10.028 2.7 12.803 6.807.199.295.388.596.567.905z" fill="#7b7179"/><path d="m496.564 496.568h-481.12c-5.712 0-10.687-3.11-13.357-7.72-1.317 2.273-2.082 4.904-2.082 7.72 0 8.527 6.912 15.44 15.44 15.44h481.12c8.527 0 15.44-6.913 15.44-15.44 0-2.816-.766-5.447-2.082-7.72-2.672 4.611-7.647 7.72-13.359 7.72z" fill="#726a71"/></g><g><g><path d="m222.992 420.88h31.528c4.284 0 7.757-3.473 7.757-7.757s-3.473-7.757-7.757-7.757h-31.528c-4.284 0-7.757 3.473-7.757 7.757 0 4.285 3.473 7.757 7.757 7.757z" fill="#ffe55a"/></g></g></g></svg>