<svg id="Flat" height="512" viewBox="0 0 512 512" width="512" xmlns="http://www.w3.org/2000/svg"><g id="Brake-disc-part_copy" data-name="Brake-disc-part copy"><path d="m488 216-18.5 15.42-29.5 24.58-39.74-40a152.338 152.338 0 0 0 -95.96-96.16l-32.3-31.84 21.22-36.8h.01l11.07-19.2c95.7 0 183.7 88 183.7 184zm-32-40a16 16 0 1 0 -16 16 16 16 0 0 0 16-16zm-96-96a16 16 0 1 0 -16 16 16 16 0 0 0 16-16z" fill="#ffd44c"/><path d="m444.26 215.8a151.5 151.5 0 0 0 -11.09-25.33 15.988 15.988 0 0 1 -9.17-14.47v-.12a152.249 152.249 0 0 0 -75.7-56.24l-32.3-31.84 21.22-36.8h.01l7.9-13.7a161.95 161.95 0 0 0 -40.83-5.3l-11.07 19.2h-.01l-21.22 36.8 32.3 31.84a152.338 152.338 0 0 1 95.96 96.16l39.74 40 24.18-20.15z" fill="#ffba0d"/><path d="m469.57 231.51a217.489 217.489 0 0 1 2.43 32.49c0 119.29-96.71 216-216 216s-216-96.71-216-216 96.71-216 216-216a216.39 216.39 0 0 1 37.22 3.2l-21.22 36.8 32.3 31.84a152.338 152.338 0 0 1 95.96 96.16l39.74 40 29.5-24.58zm-93.57 32.49a120 120 0 1 0 -120 120 120.005 120.005 0 0 0 120-120z" fill="#d1d3d4"/><path d="m96 264c0-109.81 81.95-200.49 188.03-214.2a217.9 217.9 0 0 0 -28.03-1.8c-119.29 0-216 96.71-216 216s96.71 216 216 216a215.65 215.65 0 0 0 28-1.81c-106.06-13.72-188-104.39-188-214.19z" fill="#bcbec0"/><circle cx="440" cy="176" fill="#ffba0d" r="16"/><circle cx="344" cy="80" fill="#ffba0d" r="16"/><path d="m256 144a120 120 0 1 1 -120 120 120.005 120.005 0 0 1 120-120zm88 120a88 88 0 1 0 -88 88 88 88 0 0 0 88-88z" fill="#414042"/><path d="m256 176a88 88 0 1 1 -88 88 88 88 0 0 1 88-88zm56 88a16 16 0 1 0 -16 16 16 16 0 0 0 16-16zm-40-40a16 16 0 1 0 -16 16 16 16 0 0 0 16-16zm0 80a16 16 0 1 0 -16 16 16 16 0 0 0 16-16zm-40-40a16 16 0 1 0 -16 16 16 16 0 0 0 16-16z" fill="#808285"/><path d="m200 264a88.032 88.032 0 0 1 72-86.55 88 88 0 1 0 0 173.1 88.032 88.032 0 0 1 -72-86.55z" fill="#626466"/><circle cx="296" cy="264" fill="#d1d3d4" r="16"/><circle cx="256" cy="224" fill="#d1d3d4" r="16"/><circle cx="256" cy="304" fill="#d1d3d4" r="16"/><circle cx="216" cy="264" fill="#d1d3d4" r="16"/><g fill="#808285"><path d="m384 104h16v16h-16z"/><path d="m400 120h16v16h-16z"/><path d="m170.745 96h90.51v16h-90.51z" transform="matrix(.707 -.707 .707 .707 -10.274 183.196)"/><path d="m88 258.745h16v90.51h-16z" transform="matrix(.707 -.707 .707 .707 -186.843 156.922)"/><path d="m250.745 416h90.51v16h-90.51z" transform="matrix(.707 -.707 .707 .707 -213.117 333.49)"/><path d="m96 152h16v16h-16z"/><path d="m96 184h16v16h-16z"/><path d="m96 216h16v16h-16z"/><path d="m144 408h16v16h-16z"/><path d="m176 408h16v16h-16z"/><path d="m208 408h16v16h-16z"/><path d="m400 296h16v16h-16z"/><path d="m400 328h16v16h-16z"/><path d="m400 360h16v16h-16z"/></g></g></svg>