<svg xmlns="http://www.w3.org/2000/svg" viewBox="0 0 69.33 35.14"><defs><style>.cls-1{fill:#cb2329;}.cls-2{fill:#cb2229;}</style></defs><g id="Layer_2" data-name="Layer 2"><g id="Layer_1-2" data-name="Layer 1"><path class="cls-1" d="M34.85,35.14c-1.89,0-3.79-.06-5.68-.21a60.67,60.67,0,0,1-9.29-1.46A46.21,46.21,0,0,1,12.26,31a30.3,30.3,0,0,1-6.45-3.68A17.41,17.41,0,0,1,2,23.42a10.74,10.74,0,0,1-1.8-4.09,9.08,9.08,0,0,1,.61-5.44A13.43,13.43,0,0,1,3.93,9.5,25.6,25.6,0,0,1,10,5.23a43.14,43.14,0,0,1,9.09-3.36A58.78,58.78,0,0,1,25.56.61c1.68-.24,3.37-.4,5.07-.5C32.74,0,34.84,0,37,0s4,.22,6,.47a57.57,57.57,0,0,1,8.81,1.79,40.47,40.47,0,0,1,9.15,3.8,22.88,22.88,0,0,1,5,3.86A13.07,13.07,0,0,1,68.62,14a9.17,9.17,0,0,1,.69,4.2,10,10,0,0,1-1.42,4.35,15.75,15.75,0,0,1-3.84,4.29,27.82,27.82,0,0,1-6,3.63,44.69,44.69,0,0,1-8.4,2.92A54.66,54.66,0,0,1,44,34.49c-1.94.28-3.89.46-5.85.56Q36.5,35.14,34.85,35.14Zm-.8-4c2.89,0,4.92-.09,7-.27,1.42-.12,2.84-.28,4.25-.49a46.55,46.55,0,0,0,5-1A42.7,42.7,0,0,0,58,26.86a22.46,22.46,0,0,0,5.34-3.2,10.5,10.5,0,0,0,2.63-3,6,6,0,0,0,.4-5.32,9.44,9.44,0,0,0-2.53-3.44,20.17,20.17,0,0,0-4.48-3,39.07,39.07,0,0,0-7.41-2.76,59.57,59.57,0,0,0-6.86-1.4c-1.74-.26-3.48-.45-5.23-.56C37.49,4,35.14,4,32.78,4a76.32,76.32,0,0,0-8,.64c-1.68.23-3.35.52-5,.89a45.56,45.56,0,0,0-7.51,2.3,25.73,25.73,0,0,0-5.47,3,12.4,12.4,0,0,0-3.15,3.27,6.6,6.6,0,0,0-1,3,6.21,6.21,0,0,0,.89,3.62A10.84,10.84,0,0,0,6.3,23.82a23.12,23.12,0,0,0,5.07,3,43.25,43.25,0,0,0,8.75,2.78,64,64,0,0,0,8.93,1.29c1.88.2,3.86.26,5,.26Z"/><path class="cls-2" d="M18.09,19.33v6a.82.82,0,0,1-.17.51.48.48,0,0,1-.42.22H13.93a.79.79,0,0,1-.75-.73V11a.28.28,0,0,0-.16-.29l-.19-.12a.69.69,0,0,1-.24-.94.43.43,0,0,1,.31-.26h4.49a.66.66,0,0,1,.72.57.43.43,0,0,1,0,.16v5.26c.08,0,.1-.08.14-.13l3.93-5.14a2.49,2.49,0,0,1,.89-.68,1,1,0,0,1,.36-.07h3.83a.42.42,0,0,1,.41.41.43.43,0,0,1-.1.27c-.74,1.07-1.48,2.15-2.21,3.23l-2.63,3.84a.16.16,0,0,0,0,.22l5.66,8a1.62,1.62,0,0,1,.1.18.36.36,0,0,1-.18.48.28.28,0,0,1-.18,0H24.36A1.53,1.53,0,0,1,23,25.36L20.2,21.93l-2-2.5Z"/><path class="cls-2" d="M49.31,9.34h2.81a.82.82,0,0,1,.66.34,1.83,1.83,0,0,1,.21.42l5.16,15.2A.59.59,0,0,1,58,26a.29.29,0,0,1-.23.08H54.25a1,1,0,0,1-.81-.63c-.66-2-1.31-4-2-6-.39-1.21-.79-2.43-1.19-3.65a.3.3,0,0,0-.27-.22c-.16,0-.24,0-.3.2q-.85,2.61-1.73,5.19c-.5,1.48-1,3-1.48,4.43a1,1,0,0,1-1,.71H42.22a.54.54,0,0,1-.56-.55.46.46,0,0,1,0-.2c.21-.64.43-1.28.65-1.93l4.31-12.54c0-.11,0-.17-.09-.21a.85.85,0,0,1-.36-.17.72.72,0,0,1-.32-.73.5.5,0,0,1,.51-.39h2.92Z"/><path class="cls-2" d="M37.38,17.69v7.78a.5.5,0,0,1-.44.54H33.09a.59.59,0,0,1-.69-.49.67.67,0,0,1,0-.2V10.87c0-.12,0-.2-.15-.24a1,1,0,0,1-.41-.31.62.62,0,0,1,.1-.87.79.79,0,0,1,.33-.13h4.38a.65.65,0,0,1,.69.5V10Z"/></g></g></svg>