<svg xmlns="http://www.w3.org/2000/svg" xmlns:xlink="http://www.w3.org/1999/xlink" viewBox="0 0 2190.68 2126.36"><defs><style>.cls-1,.cls-6{stroke:#a6a8ab;}.cls-1,.cls-2,.cls-6,.cls-7{stroke-miterlimit:3.86;stroke-width:18.56px;}.cls-1{fill:url(#linear-gradient);}.cls-2{stroke:#fff;fill:url(#linear-gradient-2);}.cls-10,.cls-3{fill:#fff;}.cls-4,.cls-8{fill:#7b7d7f;}.cls-5,.cls-6,.cls-7{fill:none;}.cls-7{stroke:#58595b;}.cls-10,.cls-8,.cls-9{fill-rule:evenodd;}.cls-9{fill:#274084;}</style><linearGradient id="linear-gradient" x1="32" y1="1063.48" x2="2139.2" y2="1063.48" gradientUnits="userSpaceOnUse"><stop offset="0" stop-color="#e6e7e8"/><stop offset="1" stop-color="#6d6e70"/></linearGradient><linearGradient id="linear-gradient-2" x1="1229.84" y1="245.46" x2="941.36" y2="1881.5" gradientUnits="userSpaceOnUse"><stop offset="0.21" stop-color="#58595b"/><stop offset="1" stop-color="#d0d2d3"/></linearGradient></defs><title>volvo</title><g id="Layer_2" data-name="Layer 2"><g id="Layer_1-2" data-name="Layer 1"><path class="cls-1" d="M2105.67,798.8A1048.37,1048.37,0,0,0,1954.18,467a1059.3,1059.3,0,0,0-210.37-226.23C1563.48,96.28,1334.63,9.88,1085.6,9.88,596.87,9.88,185.86,342.64,66.78,794a1061.08,1061.08,0,0,0,6.91,564c127.4,438.6,532.21,759.17,1011.91,759.17,479.06,0,883.44-319.72,1011.4-757.43a1060.89,1060.89,0,0,0,8.67-560.85Zm-1494,738.61a669.18,669.18,0,0,1-128.2-179.15l1203.7,1a669.31,669.31,0,0,1-127.7,178.11C1297.74,1799.14,873.4,1799.14,611.67,1537.41Zm947.8-947.79a668.42,668.42,0,0,1,141.58,208.22L471.37,794.92a668.34,668.34,0,0,1,140.3-205.3C873.4,327.89,1297.74,327.89,1559.47,589.62Z"/><path class="cls-2" d="M1910.6,967.45a824.82,824.82,0,0,0-37.76-169.2C1762.18,469.64,1451.53,233,1085.6,233c-364.53,0-674.22,234.87-786,561.53a825,825,0,0,0-37.54,160.77,838,838,0,0,0-7,108.2q0,36.54,3.11,72.31a825.77,825.77,0,0,0,50.67,222.32C427.76,1671.34,730.68,1894,1085.6,1894c354.41,0,657-222,776.2-534.53a823.79,823.79,0,0,0,44.25-166.39,840.69,840.69,0,0,0,4.55-225.61ZM611.67,589.62c261.73-261.73,686.07-261.73,947.8,0a668.42,668.42,0,0,1,141.58,208.22L471.37,794.92A668.34,668.34,0,0,1,611.67,589.62Zm947.8,947.79c-261.73,261.73-686.07,261.73-947.8,0a669.18,669.18,0,0,1-128.2-179.15l1203.7,1A669.31,669.31,0,0,1,1559.47,1537.41Z"/><path class="cls-3" d="M1744.33,1187.17a668.33,668.33,0,0,1-57.16,172.13l-1203.7-1a670.44,670.44,0,0,1-67.25-261.14h0a673.22,673.22,0,0,1,7.08-136.6q.39-2.57.81-5.13a668.42,668.42,0,0,1,47.26-160.46l1229.68,2.92a672.34,672.34,0,0,1,43.28,389.33Z"/><polygon class="cls-4" points="1946.2 38.28 2164.5 256.58 1825.3 595.88 1607 377.58 1946.2 38.28"/><line class="cls-5" x1="1607" y1="377.58" x2="1946.2" y2="38.28"/><line class="cls-6" x1="1607" y1="377.58" x2="1946.2" y2="38.28"/><line class="cls-7" x1="2164.5" y1="256.58" x2="1825.3" y2="595.88"/><path class="cls-8" d="M2181.4,571.28c-124.6-264-284.7-442.6-535.2-562l534.1.7Z"/><path class="cls-6" d="M2181.4,571.28c-124.6-264-284.7-442.6-535.2-562l534.1.7Z"/><path class="cls-9" d="M2171.4,1063.48c0,102.7-9.3,183.9-40.8,296.2l-33.6,0-235.2-.2-174.63-.15-1203.7-1-174.59-.15-235.19-.2-33.19,0C9.1,1246.28,0,1165.58,0,1063.48c0-93.1,7.7-166.9,33.9-269.6l32.88.08,232.85.55,171.74.41,1229.68,2.92,171.79.41,232.83.55,33.33.08C2164.1,899.78,2171.4,972.18,2171.4,1063.48Z"/><path class="cls-10" d="M1231.9,1085.68c0,39.3-31,74.2-70.3,74.2l-44.9-.1a7.49,7.49,0,0,1-7.5-7.5v-129.7l.2-15.6a7.81,7.81,0,0,1,7.8-7.8l43.3.1v-44.1h-231v44h45.7a9.6,9.6,0,0,1,9.6,9.6v145.7a5.38,5.38,0,0,1-5.4,5.4h-50v43.9h346.9v-118l-44.4-.1Z"/><path class="cls-10" d="M1269.2,1001a5.73,5.73,0,0,0-4.2-1.7h-51.7v-44h248.8v44.1h-43.2l-1.9.1a5.21,5.21,0,0,0-5.3,5.3l74.3,125.6,69.9-127.1a3.71,3.71,0,0,0-3.7-3.8h-40.8v-44.1h174.9v44.1h-46l-4.3.1a8.77,8.77,0,0,0-4,1l-110.3,203.2H1385.3L1269.2,1001Z"/><path class="cls-10" d="M181.1,1001a5.89,5.89,0,0,0-4.2-1.7H125.2v-44H374v44.1H330.8l-1.9.1a5.27,5.27,0,0,0-5.3,5.3l74.3,125.6,70-127.1a3.8,3.8,0,0,0-3.8-3.8H423.3v-44.1H598.1v44.1H552.2l-4.3.1a8.46,8.46,0,0,0-4,1l-110.3,203.2H297.1L181.1,1001Z"/><path class="cls-10" d="M743.8,955.28c-96.7,0-175.1,55.9-175.1,124.9s78.4,124.8,175.1,124.9,175-55.9,175-124.9S840.5,955.28,743.8,955.28Zm33.1,196a49.35,49.35,0,0,1-30.7,11.4c-11.4,0-25.4-4.7-32.1-12.9-13.1-16.1-23.6-42.6-23.6-69.7,0-24.9,6.3-48.4,18.4-63.6a49.85,49.85,0,0,1,5-5.3,47,47,0,0,1,69.5,5.3c12,15.2,18.4,38.7,18.4,63.6C801.8,1109.18,791.6,1135.48,776.9,1151.28Z"/><path class="cls-10" d="M1910.6,967.45a233.69,233.69,0,0,0-77.5-12.87c-30.39,0-59,5.52-83.88,15.23-54.35,21.2-91.22,62.35-91.22,109.67,0,45.88,34.67,86,86.33,107.69,26,10.94,56.37,17.21,88.77,17.21a235.09,235.09,0,0,0,73-11.32c60.28-19.73,102.15-63.16,102.15-113.58C2008.2,1030.33,1968.43,987.84,1910.6,967.45Zm-44.4,183.23a49.13,49.13,0,0,1-30.7,11.4c-11.4,0-25.4-4.7-32.1-12.9-13.1-16-23.6-42.5-23.6-69.6,0-24.9,6.3-48.5,18.4-63.6a49.77,49.77,0,0,1,4.9-5.4,47,47,0,0,1,69.5,5.3c12.1,15.2,18.4,38.7,18.4,63.6C1891,1108.58,1880.8,1134.88,1866.2,1150.68Z"/></g></g></svg>