<svg xmlns="http://www.w3.org/2000/svg" viewBox="0 0 440.86 348.84"><defs><style>.cls-1{fill:#fff;}.cls-1,.cls-2{stroke:#000;fill-rule:evenodd;}</style></defs><title>mazda-logo</title><g id="Layer_2" data-name="Layer 2"><g id="Layer_1-2" data-name="Layer 1"><path class="cls-1" d="M39.76,59C52.66,74.83,75.3,87,76.26,87.46a2,2,0,0,0,2.7-.84.54.54,0,0,1,.05-.11c.24-.54,26-54.37,140-54.37S359.54,86.25,359.8,86.8a2,2,0,0,0,2.65,1l.09,0c1.17-.62,28.85-15.28,38.59-29.34a.87.87,0,0,0,.07-.17,1.77,1.77,0,0,0,.24-.7l0-.18a2,2,0,0,0-.09-.7s0,0,0,0a.86.86,0,0,0-.07-.1,2,2,0,0,0-.16-.36C399.61,53.87,362,.5,219,.5S41,54.44,39.61,56.73A1.87,1.87,0,0,0,39.76,59Z"/><path class="cls-2" d="M219,28.14C113,28.14,82,72.88,76.36,83c-4.68-2.65-17.78-10.49-28-20.44l12.45,4.58a2,2,0,0,0,2.24-.62C107.11,11.55,217.84,16.13,219,16.18l.09,0,.1,0C220.26,16.13,331,11.57,375,66.47a2,2,0,0,0,2.21.63l16-5.55c-9.6,9.59-25.51,18.78-30.76,21.69-5.71-10-37.24-55.1-143.4-55.1Z"/><path class="cls-1" d="M406,61.43a2.87,2.87,0,0,0-3.72-.23c-.05.06-1.45,1.49-4.1,3.87a2,2,0,0,0-.67.61A226.18,226.18,0,0,1,337,103.28l-10.58,4.43c-21.28,8.85-44,18.34-64,32.93l0,0c-17.12,12.55-32.14,28.88-42.32,51.85-22-49.72-66.73-68.34-106.3-84.81l-10.58-4.43C61.55,85.56,38.2,61.42,38,61.19a1.85,1.85,0,0,0-2.6-.3,1.87,1.87,0,0,0-.47.54C22.05,79.77.5,119.86.5,182.19.5,235.52,26,300.49,83,325.43c58.22,25.48,123.3,22.84,137.39,22.84s79.17,2.64,137.39-22.84c57-24.94,82.54-89.91,82.54-143.24C440.36,119.86,418.82,79.78,406,61.43ZM220.5,316.83h-.14c-26.18.51-92.56-2.47-131.67-40.9-40.07-39.38-33.09-115.79-31-132.62,11.4,8.15,26.81,12.47,44.44,17.41,20.66,5.79,44.07,12.35,65.64,26.84,33.13,22.26,50.3,65.1,50.48,65.53,0,0,21.09-43.3,54.18-65.52,21.57-14.49,45-21,65.63-26.84,17.94-5,33.58-9.4,45-17.83,2,15.92,9.48,93.31-30.94,133C313.06,314.36,246.68,317.34,220.5,316.83Z"/><path class="cls-2" d="M218.26,198.35s0,0,0,0a2.23,2.23,0,0,0,.32.48.91.91,0,0,0,.11.16,1.53,1.53,0,0,0,.16.11,2,2,0,0,0,.49.32h0a1.28,1.28,0,0,0,.27.05,1.32,1.32,0,0,0,1,0,1.09,1.09,0,0,0,.26-.05h0a1.92,1.92,0,0,0,.48-.32.53.53,0,0,0,.27-.27,1.92,1.92,0,0,0,.32-.48v0A120.28,120.28,0,0,1,246,160.45a69.34,69.34,0,0,0-3.11,18,2,2,0,0,0,3.77.9c.62-1.23,3.53-4.12,5.4-5.78a2.07,2.07,0,0,0,.66-1.33c.92-11.08,10.49-25.91,12.16-28.43a195,195,0,0,1,26.22-15.94c-11.14,8.87-25.08,21.64-33.06,35.22a2,2,0,0,0,3.16,2.4c.17-.17,17.79-17.86,60.77-29.77C332,133,357.37,124,387.91,106.17a2,2,0,0,0,.91-1.17l12-36.95.72-.66a170.4,170.4,0,0,1-6.34,36.9c-3.87,2.51-30.24,19.38-52.79,27.65-4.68,1.71-10,3.35-15.69,5.08-33.23,10.18-78.46,24.07-106.6,84C192,161.09,146.73,147.2,113.5,137c-5.66-1.73-11-3.37-15.69-5.08C75.26,123.67,48.9,106.8,45,104.29c-5-11.15-6.78-23.51-7.57-34.08,10.76,42.87,57.25,58,78.73,65,32.4,10.45,51,21,51.2,21.1a2,2,0,0,0,2.71-.71,2,2,0,0,0,.09-1.85c-4.69-10.16-13.44-19.22-21.36-26C177.18,142.25,203.77,162.29,218.26,198.35Z"/><path class="cls-2" d="M218.28,226.59a2,2,0,0,0,.17.23,1.39,1.39,0,0,0,.62.62l.23.17h0a1.64,1.64,0,0,0,.45.1.86.86,0,0,0,.63,0,1.65,1.65,0,0,0,.44-.1h0l.23-.17a1.83,1.83,0,0,0,.36-.26,1.77,1.77,0,0,0,.26-.35l.16-.24c27.25-61.65,72.74-75.58,106-85.75,5.72-1.75,11.12-3.4,15.9-5.16,19-7,40.6-19.88,49.69-25.57a205.94,205.94,0,0,1-11,28.26c-11,8.85-27,13.34-45.45,18.52-20.95,5.87-44.7,12.52-66.79,27.37-28.25,19-44.82,51.4-50.1,63.07-5.29-11.68-21.86-44.1-50.1-63.07-22.1-14.85-45.84-21.5-66.79-27.37-18.5-5.18-34.48-9.67-45.45-18.52a206,206,0,0,1-11-28.26c9.1,5.68,30.69,18.61,49.7,25.58,4.79,1.75,10.19,3.4,15.9,5.15,33.22,10.17,78.7,24.1,106,85.75Z"/><path class="cls-2" d="M396.21,114.61a211.39,211.39,0,0,1-9.67,24.46,2,2,0,0,1,.1.26c.58,3.5,12.55,79.59-21.42,127.36a64.55,64.55,0,0,0,32.2-38.2l.07-.21C397.68,227.75,416.55,175.24,396.21,114.61ZM54.12,140A213.73,213.73,0,0,1,41,104.59C8.32,180.4,42,239.86,42.28,240.34c12.38,18,27.48,26,35.47,29.21C42.45,223.66,52.83,148.34,54.12,140Z"/><path class="cls-2" d="M436.38,182.18c0,52-25.14,114.59-80.16,139.59-49.63,22.56-125.09,23.06-135.79,23.06s-79.71,1.1-135.8-23.06C31.84,299,7,240.33,4.68,189.9c12,35.7,29.77,51,33.08,53.58,14.06,41.77,50.1,70.87,104.28,84.15,22.42,5.49,54,7.17,71.81,7.61-1.58.07,1.12.17,6.58.12s8.16-.05,6.59-.12c17.8-.43,49.38-2.12,71.8-7.61,54.44-13.35,90.57-42.65,104.49-84.75.23-.69,23.11-70.84-3.15-140.09a2.41,2.41,0,0,0-.3-.48,172.41,172.41,0,0,0,5.64-34.44c12.67,19.5,30.87,57.43,30.87,114.32Z"/></g></g></svg>